<?xml version="1.0" encoding="UTF-8"?>
<svg id="Capa_1" xmlns="http://www.w3.org/2000/svg" version="1.1" viewBox="0 0 28 24">
  <!-- Generator: Adobe Illustrator 29.2.0, SVG Export Plug-In . SVG Version: 2.1.0 Build 108)  -->
  <defs>
    <style>
      .st0 {
        fill: #f0eddd;
      }
    </style>
  </defs>
  <path class="st0" d="M27.66,13.71c-3.13-.5-4.08-3.03-2.86-7.61.14-2.22-1.19-4.25-3.99-6.07-1.73-.24-2.25.68-2.6.72-1.43,1.22-3.43,1.41-6.01.57-.45-.02-.95-.17-1.48-.35-.23,0-.46.03-.69.03-1.16.29-2.33.6-3.48.93-.22.15-.46.3-.7.45-.19.18-.37.37-.57.55l-.03.59c-.03-.17-.07-.32-.13-.45-1.07.96-2.22,1.87-3.49,2.7-.12.08-.25.16-.38.23-.24.34-.48.67-.74,1-.15.45-.31.89-.47,1.34C.04,8.41.02,8.47,0,8.53c.88,2.19,1.73,1.18,2.52-.92,1.75-.41.06,4.07-.61,4.91,1.3,2.84,2.55,3.22,3.75,1.12.92,1.22,2.18,1.72,3.76,1.48,3-2.19,4.86-2.26,5.58-.22l.45.88c-6.55,1.79-2.45,11.84,2.61,6.83,1.58.78,2.75,1.27,2.6-.72.53-2.41,1.45-3.77,2.76-4.08-.24,2.01.31,2.6,1.63,1.76-.04,1.13.21,1.98.73,2.56.74-1.64.62-2.12,1.01-3.32.75-.67,1.54-1.52.97-2.48l-.08-2.62Z"/>
</svg>