<?xml version="1.0" encoding="UTF-8"?>
<svg id="Capa_1" xmlns="http://www.w3.org/2000/svg" version="1.1" viewBox="0 0 16 26">
  <!-- Generator: Adobe Illustrator 29.2.0, SVG Export Plug-In . SVG Version: 2.1.0 Build 108)  -->
  <defs>
    <style>
      .st0 {
        fill: #95a2ac;
      }
    </style>
  </defs>
  <path class="st0" d="M.41,23.53c.37.82.74,1.64,1.06,2.47,1.28.07,2.86-.74,4.8-2.88.37.16.89.37,1.65.66,1.5,3.07,7.79.85,6.47-2.85,2.85-2.41,1.92-5.07-2.79-7.99-.13-.23-3.96-.28-4.53-2.72-.57-2.45,2.73-6.83,1.95-9.97-2.88-1-2.84,1.27-3.23,1.42-2.23,2.64-3.77,3.17-4.64,1.65C.76,4.39.38,5.46,0,6.53c.56,2.67.93,5.4,1.05,8.18.14,3-.11,5.95-.64,8.81Z"/>
</svg>