<?xml version="1.0" encoding="UTF-8"?>
<svg id="Capa_1" xmlns="http://www.w3.org/2000/svg" version="1.1" viewBox="0 0 13 25">
  <!-- Generator: Adobe Illustrator 29.2.0, SVG Export Plug-In . SVG Version: 2.1.0 Build 108)  -->
  <defs>
    <style>
      .st0 {
        fill: #c0b88a;
      }

      .st1 {
        fill: #8f804a;
      }

      .st2 {
        fill: #9d9766;
      }

      .st3 {
        fill: #bdb69a;
      }

      .st4 {
        fill: #b2a976;
      }

      .st5 {
        fill: #c8c193;
      }

      .st6 {
        fill: #9f8f5c;
      }
    </style>
  </defs>
  <path class="st6" d="M6.62,7.21c-1.7.77-1.86,3.04-.19,3.94-1.45,1.31-.8,1.95.98,1.03-1.31,4.93.49,8.52,3.5,11.97.41.23.82.47,1.22.73.2-.12.4-.25.61-.36.09-.44.18-.88.29-1.32-.44-5.78-.8-7.48-2.45-12.85-.95-2.53-2.21-4.89-3.77-7.08-.79-.41-1.94-.44-3.03-1.12-.51-.82-1.19-.85-2.05-.09-.26.55-.96.96-1.12,1.92,1.4,2.26,3.4,3.34,6.01,3.23Z"/>
  <path class="st0" d="M1.99,17.86c1.76,2.61,1.81,3.02,4.94,4.17.03.11.07.2.11.3,1.35.52,2.65,1.13,3.89,1.83-.45-2.65-2.22-10.12-3.53-11.98-2.72-.29-4.04-1.55-3.93-3.76l-2.13,1.52c-1.17,1-.99,3.56-.24,4.93-.33.76-.03,1.76.88,3Z"/>
  <path class="st4" d="M6.43,11.15c-1.24-1.11-1.18-2.43.19-3.94-.37-3.06-2.46-4.86-3.54-1.13-.8-.04-.04-2.85-2.47-2.1-.06.32,0,.66-.05.99.16,1.78.42,3.44.79,4.97,5.12.44,1.52,5.23,2.71,8.02l3.35-5.77c-.33-.47-.53-.67-.98-1.03Z"/>
  <path class="st3" d="M10,23.65c.32-2.42-1.84-1.18-3.07-1.63-.01.08-.02.16-.03.25,1.07.4,2.1.87,3.1,1.38Z"/>
  <path class="st4" d="M6.81,3.27c2.73,2.15-.03,7.65,3.77,7.08-1.31-4.23.72-4.75-3.77-7.08Z"/>
  <path class="st2" d="M1.35,9.93c.02-1.58.83-4.06-.79-4.97C.23,7.56-.18,12.36.09,14.81c.25.87.59.88,1.03.05-.13-1.51.22-3.33.24-4.93Z"/>
  <path class="st1" d="M3.78,2.14C3.45,1.94,2.56-.48,1.84.09c-.16.61.1,1.54-.11,1.97l.48,1,1.58-.91Z"/>
  <path class="st4" d="M1.11,14.86l-1.03-.05c.29,2.66,1.27,2.1,1.91,3.05.58-1.15-.85-2.59-.88-3Z"/>
  <path class="st5" d="M6.62,7.21c-2.34-.81-2.71,1.16-2.26,3.32.22,1.09,1.79.39,2.07.62-.08-1.27.34-2.73.19-3.94Z"/>
</svg>