<?xml version="1.0" encoding="UTF-8"?>
<svg id="Capa_1" xmlns="http://www.w3.org/2000/svg" version="1.1" viewBox="0 0 22 17">
  <!-- Generator: Adobe Illustrator 29.2.0, SVG Export Plug-In . SVG Version: 2.1.0 Build 108)  -->
  <defs>
    <style>
      .st0 {
        fill: #d5c9a7;
      }
    </style>
  </defs>
  <path class="st0" d="M19.81,9.9c.89-.74,2.08-7.46,1.97-9.26-4.73-1.61-2.48,2.7-4.25,2.97-4.45.68-.68-3.57-4-3.26-2.03,10.54-1.22,6.26-5.9,5.97-1.8-.11-.68,2.37-1.09,3.11-1.08,1.94-2-7.2-4.9-1.72.16.27-3.17,3.44-.2,5.47,1.21.82,4.36-2.79,3.24,2.42l1.8,1.28c.89-3.54,2.53-4.92,4.94-4.16.36.8-.98,3.13.71,3.13,2.77-.9.92-3.94,1.35-4.35,1.27-1.24,5.64-1.02,6.33-1.6Z"/>
</svg>